<?xml version="1.0" encoding="utf-8"?>
<!-- Generator: Adobe Illustrator 17.0.0, SVG Export Plug-In . SVG Version: 6.00 Build 0)  -->
<!DOCTYPE svg PUBLIC "-//W3C//DTD SVG 1.1//EN" "http://www.w3.org/Graphics/SVG/1.1/DTD/svg11.dtd">
<svg version="1.1" id="Layer_1" xmlns="http://www.w3.org/2000/svg" xmlns:xlink="http://www.w3.org/1999/xlink" x="0px" y="0px"
	 width="89.498px" height="18.749px" viewBox="0 0 89.498 18.749" enable-background="new 0 0 89.498 18.749" xml:space="preserve">
<rect x="0" y="17.265" fill="#396DE5" width="89.498" height="1.484"/>
<g>
	<path fill="#161616" d="M0,15.552V0h5.832c1.195,0,2.199,0.208,3.011,0.623s1.427,0.996,1.845,1.743
		c0.417,0.747,0.626,1.616,0.626,2.608c0,0.998-0.211,1.862-0.634,2.593C10.258,8.299,9.637,8.863,8.816,9.26
		c-0.82,0.397-1.828,0.597-3.022,0.597H1.641V7.518h3.774c0.699,0,1.271-0.097,1.716-0.292c0.445-0.195,0.775-0.48,0.991-0.858
		C8.337,5.99,8.444,5.525,8.444,4.974S8.335,3.95,8.118,3.558C7.9,3.165,7.568,2.867,7.123,2.662s-1.02-0.308-1.724-0.308H2.817
		v13.198H0z M8.034,8.505l3.85,7.047H8.741L4.959,8.505H8.034z"/>
	<path fill="#161616" d="M17.954,15.78c-1.169,0-2.178-0.244-3.026-0.732c-0.848-0.488-1.5-1.182-1.955-2.081
		c-0.456-0.898-0.684-1.958-0.684-3.178c0-1.2,0.229-2.254,0.688-3.163c0.458-0.909,1.1-1.618,1.925-2.126
		c0.825-0.508,1.794-0.763,2.908-0.763c0.719,0,1.398,0.115,2.039,0.346c0.641,0.231,1.208,0.586,1.701,1.067
		s0.882,1.092,1.166,1.834c0.283,0.742,0.425,1.624,0.425,2.647v0.843H13.58V8.619h6.925C20.5,8.093,20.386,7.623,20.164,7.21
		c-0.223-0.413-0.533-0.738-0.931-0.976s-0.859-0.357-1.386-0.357c-0.562,0-1.056,0.135-1.48,0.406
		c-0.425,0.271-0.756,0.625-0.991,1.063c-0.235,0.438-0.355,0.918-0.361,1.439v1.618c0,0.679,0.124,1.26,0.372,1.742
		c0.248,0.484,0.595,0.854,1.041,1.109c0.446,0.255,0.967,0.383,1.564,0.383c0.4,0,0.762-0.057,1.086-0.17
		c0.324-0.114,0.604-0.282,0.843-0.506c0.238-0.223,0.417-0.498,0.539-0.827l2.567,0.288c-0.162,0.679-0.47,1.27-0.923,1.773
		s-1.032,0.894-1.735,1.169C19.665,15.642,18.86,15.78,17.954,15.78z"/>
	<path fill="#161616" d="M34.516,6.971L32.01,7.244c-0.071-0.253-0.193-0.491-0.368-0.714c-0.174-0.223-0.409-0.402-0.702-0.539
		c-0.294-0.137-0.653-0.205-1.079-0.205c-0.572,0-1.052,0.124-1.439,0.372s-0.578,0.57-0.573,0.964
		c-0.005,0.339,0.12,0.615,0.376,0.828c0.255,0.212,0.68,0.387,1.272,0.524L31.485,8.9c1.104,0.238,1.925,0.615,2.464,1.132
		s0.811,1.192,0.816,2.027c-0.004,0.734-0.218,1.381-0.64,1.941c-0.423,0.56-1.009,0.996-1.758,1.31
		c-0.749,0.314-1.61,0.471-2.582,0.471c-1.428,0-2.577-0.3-3.448-0.899s-1.39-1.437-1.557-2.51l2.681-0.258
		c0.122,0.526,0.38,0.924,0.774,1.191c0.395,0.269,0.909,0.402,1.542,0.402c0.653,0,1.178-0.134,1.576-0.402
		c0.397-0.268,0.596-0.6,0.596-0.994c0-0.334-0.128-0.61-0.383-0.828c-0.256-0.218-0.652-0.385-1.188-0.501l-1.99-0.418
		c-1.119-0.232-1.946-0.626-2.483-1.181c-0.537-0.554-0.803-1.257-0.797-2.107c-0.005-0.719,0.191-1.343,0.588-1.872
		s0.952-0.939,1.663-1.23c0.711-0.292,1.533-0.437,2.464-0.437c1.367,0,2.444,0.292,3.231,0.874S34.328,5.979,34.516,6.971z"/>
	<path fill="#161616" d="M43.833,10.647V3.888h2.749v11.665h-2.666V13.48h-0.122c-0.263,0.653-0.695,1.188-1.294,1.603
		c-0.6,0.415-1.338,0.623-2.214,0.623c-0.764,0-1.439-0.171-2.023-0.513c-0.585-0.342-1.042-0.841-1.371-1.496
		c-0.33-0.655-0.494-1.449-0.494-2.381V3.888h2.749v7.002c0,0.739,0.203,1.326,0.608,1.762c0.405,0.435,0.937,0.652,1.594,0.652
		c0.405,0,0.797-0.099,1.177-0.296s0.692-0.492,0.938-0.885C43.71,11.731,43.833,11.239,43.833,10.647z"/>
	<path fill="#161616" d="M48.261,15.552V3.888h2.627V5.87h0.137c0.243-0.668,0.645-1.191,1.207-1.568s1.233-0.566,2.013-0.566
		c0.79,0,1.457,0.191,2,0.573c0.544,0.382,0.928,0.903,1.151,1.561h0.121c0.258-0.648,0.695-1.166,1.31-1.553
		s1.345-0.581,2.191-0.581c1.073,0,1.949,0.339,2.627,1.018c0.678,0.679,1.018,1.668,1.018,2.969v7.83h-2.757V8.148
		c0-0.724-0.192-1.254-0.577-1.591c-0.385-0.337-0.855-0.505-1.412-0.505c-0.664,0-1.181,0.206-1.553,0.619
		s-0.558,0.948-0.558,1.606v7.275H55.11V8.034c0-0.603-0.181-1.083-0.543-1.443c-0.362-0.359-0.834-0.539-1.416-0.539
		c-0.395,0-0.754,0.1-1.078,0.3c-0.324,0.2-0.583,0.481-0.775,0.843s-0.289,0.784-0.289,1.265v7.093h-2.748V15.552z"/>
	<path fill="#161616" d="M71.918,15.78c-1.169,0-2.178-0.244-3.026-0.732s-1.5-1.182-1.955-2.081
		c-0.456-0.898-0.684-1.958-0.684-3.178c0-1.2,0.229-2.254,0.688-3.163c0.458-0.909,1.1-1.618,1.925-2.126s1.794-0.763,2.908-0.763
		c0.719,0,1.398,0.115,2.039,0.346c0.641,0.231,1.208,0.586,1.701,1.067s0.882,1.092,1.166,1.834
		c0.283,0.742,0.425,1.624,0.425,2.647v0.843h-9.561V8.619h6.925c-0.005-0.526-0.119-0.996-0.341-1.409
		c-0.223-0.413-0.533-0.738-0.931-0.976s-0.859-0.357-1.386-0.357c-0.562,0-1.056,0.135-1.48,0.406
		c-0.425,0.271-0.756,0.625-0.991,1.063c-0.235,0.438-0.355,0.918-0.361,1.439v1.618c0,0.679,0.124,1.26,0.372,1.742
		c0.248,0.484,0.595,0.854,1.041,1.109s0.967,0.383,1.564,0.383c0.4,0,0.762-0.057,1.086-0.17c0.324-0.114,0.604-0.282,0.843-0.506
		c0.238-0.223,0.417-0.498,0.539-0.827l2.567,0.288c-0.162,0.679-0.47,1.27-0.923,1.773s-1.032,0.894-1.735,1.169
		C73.629,15.642,72.824,15.78,71.918,15.78z"/>
	<path fill="#161616" d="M84.311,15.78c-1.169,0-2.178-0.244-3.026-0.732s-1.5-1.182-1.955-2.081
		c-0.456-0.898-0.684-1.958-0.684-3.178c0-1.2,0.229-2.254,0.688-3.163c0.458-0.909,1.1-1.618,1.925-2.126s1.794-0.763,2.908-0.763
		c0.719,0,1.398,0.115,2.039,0.346c0.641,0.231,1.208,0.586,1.701,1.067s0.882,1.092,1.166,1.834
		c0.283,0.742,0.425,1.624,0.425,2.647v0.843h-9.561V8.619h6.925c-0.005-0.526-0.119-0.996-0.341-1.409
		c-0.223-0.413-0.533-0.738-0.931-0.976s-0.859-0.357-1.386-0.357c-0.562,0-1.056,0.135-1.48,0.406
		c-0.425,0.271-0.756,0.625-0.991,1.063c-0.235,0.438-0.355,0.918-0.361,1.439v1.618c0,0.679,0.124,1.26,0.372,1.742
		c0.248,0.484,0.595,0.854,1.041,1.109s0.967,0.383,1.564,0.383c0.4,0,0.762-0.057,1.086-0.17c0.324-0.114,0.604-0.282,0.843-0.506
		c0.238-0.223,0.417-0.498,0.539-0.827l2.567,0.288c-0.162,0.679-0.47,1.27-0.923,1.773s-1.032,0.894-1.735,1.169
		C86.021,15.642,85.217,15.78,84.311,15.78z"/>
</g>
</svg>
