<?xml version="1.0" encoding="utf-8"?>
<!-- Generator: Adobe Illustrator 17.0.0, SVG Export Plug-In . SVG Version: 6.00 Build 0)  -->
<!DOCTYPE svg PUBLIC "-//W3C//DTD SVG 1.1//EN" "http://www.w3.org/Graphics/SVG/1.1/DTD/svg11.dtd">
<svg version="1.1" id="Layer_1" xmlns="http://www.w3.org/2000/svg" xmlns:xlink="http://www.w3.org/1999/xlink" x="0px" y="0px"
	 width="118.472px" height="21.754px" viewBox="0 0 118.472 21.754" enable-background="new 0 0 118.472 21.754"
	 xml:space="preserve">
<g>
	<path fill="#353F4C" d="M28.954,18.781V3.229h5.832c1.195,0,2.199,0.208,3.011,0.623s1.427,0.996,1.845,1.743
		c0.417,0.747,0.626,1.616,0.626,2.608c0,0.998-0.211,1.862-0.634,2.593c-0.422,0.732-1.043,1.296-1.864,1.693
		c-0.82,0.397-1.828,0.597-3.022,0.597h-4.153v-2.339h3.774c0.699,0,1.271-0.097,1.716-0.292s0.775-0.48,0.991-0.858
		c0.215-0.378,0.322-0.843,0.322-1.394s-0.109-1.024-0.326-1.416c-0.218-0.393-0.55-0.691-0.995-0.896s-1.02-0.308-1.724-0.308
		h-2.582v13.198C31.771,18.781,28.954,18.781,28.954,18.781z M36.988,11.734l3.85,7.047h-3.143l-3.782-7.047
		C33.913,11.734,36.988,11.734,36.988,11.734z"/>
	<path fill="#353F4C" d="M72.787,13.876V7.117h2.749v11.665H72.87v-2.073h-0.122c-0.263,0.653-0.695,1.188-1.294,1.603
		c-0.6,0.415-1.338,0.623-2.214,0.623c-0.764,0-1.439-0.171-2.023-0.513c-0.585-0.342-1.042-0.841-1.371-1.496
		c-0.33-0.655-0.494-1.449-0.494-2.381V7.117h2.749v7.002c0,0.739,0.203,1.326,0.608,1.762c0.405,0.435,0.937,0.652,1.594,0.652
		c0.405,0,0.797-0.099,1.177-0.296s0.692-0.492,0.938-0.885C72.664,14.96,72.787,14.468,72.787,13.876z"/>
	<path fill="#353F4C" d="M77.215,18.781V7.117h2.627v1.982h0.137c0.243-0.668,0.645-1.191,1.207-1.568
		c0.562-0.377,1.233-0.566,2.013-0.566c0.79,0,1.457,0.191,2,0.573c0.544,0.382,0.928,0.903,1.151,1.561h0.121
		c0.258-0.648,0.695-1.166,1.31-1.553c0.615-0.387,1.345-0.581,2.191-0.581c1.073,0,1.949,0.339,2.627,1.018
		s1.018,1.668,1.018,2.969v7.83H90.86v-7.405c0-0.724-0.192-1.254-0.577-1.591c-0.385-0.337-0.855-0.505-1.412-0.505
		c-0.664,0-1.181,0.206-1.553,0.619s-0.558,0.948-0.558,1.606v7.275h-2.696v-7.518c0-0.603-0.181-1.083-0.543-1.443
		c-0.362-0.359-0.834-0.539-1.416-0.539c-0.395,0-0.754,0.1-1.078,0.3s-0.583,0.481-0.775,0.843
		c-0.192,0.362-0.289,0.784-0.289,1.265v7.093L77.215,18.781C77.215,18.782,77.215,18.781,77.215,18.781z"/>
	<g>
		<path fill="#353F4C" d="M46.908,19.009c-1.169,0-2.178-0.244-3.026-0.732c-0.848-0.488-1.5-1.182-1.955-2.081
			c-0.456-0.898-0.684-1.958-0.684-3.178c0-1.2,0.229-2.254,0.688-3.163c0.458-0.909,1.1-1.618,1.925-2.126
			c0.825-0.508,1.794-0.763,2.908-0.763c0.719,0,1.398,0.115,2.039,0.346s1.208,0.586,1.701,1.067s0.882,1.092,1.166,1.834
			c0.283,0.742,0.425,1.624,0.425,2.647v0.843h-9.561v-1.855h6.925c-0.005-0.526-0.119-0.996-0.341-1.409
			c-0.223-0.413-0.533-0.738-0.931-0.976s-0.859-0.357-1.386-0.357c-0.562,0-1.056,0.135-1.48,0.406
			c-0.425,0.271-0.756,0.625-0.991,1.063s-0.355,0.918-0.361,1.439v1.618c0,0.679,0.124,1.26,0.372,1.742
			c0.248,0.484,0.595,0.854,1.041,1.109c0.446,0.255,0.967,0.383,1.564,0.383c0.4,0,0.762-0.057,1.086-0.17
			c0.324-0.114,0.604-0.282,0.843-0.506c0.238-0.223,0.417-0.498,0.539-0.827l2.567,0.288c-0.162,0.679-0.47,1.27-0.923,1.773
			c-0.453,0.503-1.032,0.894-1.735,1.169C48.619,18.871,47.814,19.009,46.908,19.009z"/>
	</g>
	<g>
		<path fill="#353F4C" d="M100.872,18.782c-1.169,0-2.178-0.244-3.026-0.732s-1.5-1.182-1.955-2.081
			c-0.456-0.898-0.684-1.958-0.684-3.178c0-1.2,0.229-2.254,0.688-3.163c0.458-0.909,1.1-1.618,1.925-2.126
			c0.825-0.508,1.794-0.763,2.908-0.763c0.719,0,1.398,0.115,2.039,0.346s1.208,0.586,1.701,1.067
			c0.493,0.481,0.882,1.092,1.166,1.834c0.283,0.742,0.425,1.624,0.425,2.647v0.843h-9.561v-1.855h6.925
			c-0.005-0.526-0.119-0.996-0.341-1.409c-0.223-0.413-0.533-0.738-0.931-0.976c-0.398-0.238-0.859-0.357-1.386-0.357
			c-0.562,0-1.056,0.135-1.48,0.406c-0.425,0.271-0.756,0.625-0.991,1.063s-0.355,0.918-0.361,1.439v1.618
			c0,0.679,0.124,1.26,0.372,1.742c0.248,0.484,0.595,0.854,1.041,1.109s0.967,0.383,1.564,0.383c0.4,0,0.762-0.057,1.086-0.17
			c0.324-0.114,0.604-0.282,0.843-0.506c0.238-0.223,0.417-0.498,0.539-0.827l2.567,0.288c-0.162,0.679-0.47,1.27-0.923,1.773
			c-0.453,0.503-1.032,0.894-1.735,1.169C102.583,18.644,101.778,18.782,100.872,18.782z"/>
	</g>
	<g>
		<path fill="#353F4C" d="M113.265,18.782c-1.169,0-2.178-0.244-3.026-0.732c-0.848-0.488-1.5-1.182-1.955-2.081
			c-0.456-0.898-0.684-1.958-0.684-3.178c0-1.2,0.229-2.254,0.688-3.163c0.458-0.909,1.1-1.618,1.925-2.126
			c0.825-0.508,1.794-0.763,2.908-0.763c0.719,0,1.398,0.115,2.039,0.346s1.208,0.586,1.701,1.067
			c0.493,0.481,0.882,1.092,1.166,1.834c0.283,0.742,0.425,1.624,0.425,2.647v0.843h-9.561v-1.855h6.925
			c-0.005-0.526-0.119-0.996-0.341-1.409c-0.223-0.413-0.533-0.738-0.931-0.976c-0.398-0.238-0.859-0.357-1.386-0.357
			c-0.562,0-1.056,0.135-1.48,0.406c-0.425,0.271-0.756,0.625-0.991,1.063s-0.355,0.918-0.361,1.439v1.618
			c0,0.679,0.124,1.26,0.372,1.742c0.248,0.484,0.595,0.854,1.041,1.109c0.446,0.255,0.967,0.383,1.564,0.383
			c0.4,0,0.762-0.057,1.086-0.17c0.324-0.114,0.604-0.282,0.843-0.506c0.238-0.223,0.417-0.498,0.539-0.827l2.567,0.288
			c-0.162,0.679-0.47,1.27-0.923,1.773s-1.032,0.894-1.735,1.169C114.976,18.644,114.171,18.782,113.265,18.782z"/>
	</g>
	<g>
		<g>
			<path fill="#353F4C" d="M63.47,10.2l-2.506,0.273c-0.071-0.253-0.193-0.491-0.368-0.714c-0.174-0.223-0.409-0.402-0.702-0.539
				c-0.294-0.137-0.653-0.205-1.079-0.205c-0.572,0-1.052,0.124-1.439,0.372c-0.387,0.248-0.578,0.57-0.573,0.964
				c-0.005,0.339,0.12,0.615,0.376,0.828c0.255,0.212,0.68,0.387,1.272,0.524l1.988,0.426c1.104,0.238,1.925,0.615,2.464,1.132
				s0.811,1.192,0.816,2.027c-0.004,0.734-0.218,1.381-0.64,1.941c-0.423,0.56-1.009,0.996-1.758,1.31s-1.61,0.471-2.582,0.471
				c-1.428,0-2.577-0.3-3.448-0.899c-0.871-0.599-1.39-1.437-1.557-2.51l2.681-0.258c0.122,0.526,0.38,0.924,0.774,1.191
				c0.395,0.269,0.909,0.402,1.542,0.402c0.653,0,1.178-0.134,1.576-0.402c0.397-0.268,0.596-0.6,0.596-0.994
				c0-0.334-0.128-0.61-0.383-0.828c-0.256-0.218-0.652-0.385-1.188-0.501l-1.99-0.418c-1.119-0.232-1.946-0.626-2.483-1.181
				c-0.537-0.554-0.803-1.257-0.797-2.107c-0.005-0.719,0.191-1.343,0.588-1.872c0.397-0.529,0.952-0.939,1.663-1.23
				c0.711-0.292,1.533-0.437,2.464-0.437c1.367,0,2.444,0.292,3.231,0.874S63.282,9.208,63.47,10.2z"/>
		</g>
	</g>
</g>
<g>
	<g>
		<g>
			<path fill="#214C89" d="M11.943,7.882c0.429,0.613,0.28,1.457-0.333,1.886l0,0c-0.613,0.429-1.457,0.28-1.886-0.333L4.609,2.131
				C4.18,1.518,4.329,0.674,4.942,0.245l0,0c0.613-0.429,1.457-0.28,1.886,0.333L11.943,7.882z"/>
			<path fill="#4075D3" d="M9.751,7.882c-0.429,0.613-0.28,1.457,0.333,1.886l0,0c0.613,0.429,1.457,0.28,1.886-0.333l5.115-7.304
				c0.429-0.613,0.28-1.457-0.333-1.886l0,0c-0.613-0.429-1.457-0.28-1.886,0.333L9.751,7.882z"/>
			<circle fill="#4075D3" cx="10.818" cy="2.744" r="1.371"/>
		</g>
		<g>
			<path fill="#218765" d="M9.751,13.872c-0.429-0.613-0.28-1.457,0.333-1.886l0,0c0.613-0.429,1.457-0.28,1.886,0.333l5.115,7.304
				c0.429,0.613,0.28,1.457-0.333,1.886l0,0c-0.613,0.429-1.457,0.28-1.886-0.333L9.751,13.872z"/>
			<path fill="#44C19A" d="M11.943,13.872c0.429-0.613,0.28-1.457-0.333-1.886l0,0c-0.613-0.429-1.457-0.28-1.886,0.333
				l-5.115,7.304c-0.429,0.613-0.28,1.457,0.333,1.886l0,0c0.613,0.429,1.457,0.28,1.886-0.333L11.943,13.872z"/>
			<circle fill="#44C19A" cx="10.877" cy="19.01" r="1.371"/>
		</g>
		<g>
			<path fill="#AD7525" d="M7.882,9.781c0.613-0.429,1.457-0.28,1.886,0.333l0,0c0.429,0.613,0.28,1.457-0.333,1.886l-7.304,5.115
				c-0.613,0.429-1.457,0.28-1.886-0.333l0,0c-0.429-0.613-0.28-1.457,0.333-1.886L7.882,9.781z"/>
			<path fill="#EAA93F" d="M7.882,11.973c0.613,0.429,1.457,0.28,1.886-0.333l0,0c0.429-0.613,0.28-1.457-0.333-1.886L2.131,4.639
				C1.518,4.21,0.674,4.359,0.245,4.972l0,0c-0.429,0.613-0.28,1.457,0.333,1.886L7.882,11.973z"/>
			<circle fill="#EAA93F" cx="2.744" cy="10.906" r="1.371"/>
		</g>
		<g>
			<path fill="#9B2C2C" d="M13.872,11.973c-0.613,0.429-1.457,0.28-1.886-0.333l0,0c-0.429-0.613-0.28-1.457,0.333-1.886
				l7.304-5.115c0.613-0.429,1.457-0.28,1.886,0.333l0,0c0.429,0.613,0.28,1.457-0.333,1.886L13.872,11.973z"/>
			<path fill="#DD4848" d="M13.872,9.781c-0.613-0.429-1.457-0.28-1.886,0.333l0,0c-0.429,0.613-0.28,1.457,0.333,1.886l7.304,5.115
				c0.613,0.429,1.457,0.28,1.886-0.333l0,0c0.429-0.613,0.28-1.457-0.333-1.886L13.872,9.781z"/>
			<circle fill="#DD4848" cx="19.01" cy="10.847" r="1.371"/>
		</g>
	</g>
</g>
</svg>
